<svg xmlns="http://www.w3.org/2000/svg" xmlns:xlink="http://www.w3.org/1999/xlink" width="500px" height="500px" viewBox="0 0 500 500">
    <path d="M497.4,484.9L356.6,344.1c33.6-36.6,54.2-85.1,54.2-138.7C410.8,92,318.8,0,205.4,0S0,92,0,205.4s92,205.4,205.4,205.4
      c53.5,0,102.1-20.6,138.7-54.2l140.8,140.8c3.5,3.5,9.1,3.5,12.5,0C500.9,493.9,500.9,488.3,497.4,484.9z M205.4,392.9
      c-103.6,0-187.5-84-187.5-187.5c0-103.6,84-187.5,187.5-187.5S393,101.8,393,205.4C393,309,309,392.9,205.4,392.9z" />
</svg>
