<svg xmlns="http://www.w3.org/2000/svg" xmlns:xlink="http://www.w3.org/1999/xlink" viewBox="0 0 100 125"><path d="M38,61.7l-2.8,1.8c-0.6,0.4-0.7,1.1-0.4,1.7c0.4,0.5,1.2,0.7,1.7,0.3l3.4-2.2L38,61.7z"/><path d="M36.1,60.2l-2.3-1.8l-0.1,0.1c-0.6,0.4-0.8,1.2-0.4,1.8c0.5,0.7,1.4,0.9,2.1,0.4L36.1,60.2z"/><path d="M88.4,24.2l-34.6-20c-2.2-1.3-5-1.3-7.2,0l-34.6,20c-2.2,1.3-3.6,3.7-3.6,6.2v40c0,2.6,1.4,5,3.6,6.2l34.6,20  c1.1,0.6,2.3,1,3.6,1s2.5-0.3,3.6-1l34.6-20c2.2-1.3,3.6-3.7,3.6-6.2v-40C92,27.9,90.6,25.5,88.4,24.2z M66.3,53  c0,0.2-0.1,0.4-0.1,0.6c-0.1,0.9-0.3,1.9-0.5,2.9c0.6,1.2,0.5,2.7-0.4,3.8c-0.4,0.5-1,0.9-1.6,1.1c0.5,1.1,0.5,2.5-0.3,3.5l0,0  c0,0-0.1,0-0.1,0.1c0,0,0,0.1-0.1,0.1l0,0c-0.9,0.9-2.1,1.3-3.3,1.1c-0.1,0.6-0.3,1.1-0.7,1.6c-1.2,1.5-3.5,1.8-5,0.6l-2.5-2  c-0.1,0.4-0.3,0.8-0.6,1.2c-1.2,1.5-3.5,1.8-5,0.6l-0.4-0.3l-1.4,1c0,0,0,0,0,0l-2.7,1.8c-1.6,1.1-3.8,0.6-4.9-1  c-0.3-0.5-0.5-1.1-0.5-1.7C35,68,33.7,67.5,33,66.5l0,0c0,0,0-0.1,0-0.1c0,0,0-0.1-0.1-0.1l0,0c-0.6-1.1-0.6-2.5,0-3.5  c-0.6-0.3-1.1-0.7-1.5-1.3c-1-1.5-0.6-3.6,0.8-4.7c-1.3-2-1.5-4.9-1.6-7c0-0.2,0-0.4,0-0.6l-5.1-4l1.1-2l6.2,4.8l0,0.5  c0,0.3,0.1,0.8,0.1,1.2c0.1,2.1,0.3,5.3,1.8,6.5l8.8,7l4.1,3.2c0.6,0.5,1.4,0.4,1.9-0.2c0.4-0.6,0.3-1.4-0.2-1.8L44,60.2l1.4-1.8  l5.2,4.1l5.1,4.1c0.6,0.5,1.4,0.4,1.8-0.2c0.4-0.6,0.3-1.4-0.2-1.8l-11.5-9.1l1.4-1.8l11.5,9.1c0.1,0.1,0.2,0.2,0.3,0.3l0,0l0.8,0.6  c0.5,0.4,1.3,0.4,1.8-0.1c0.4-0.5,0.3-1.3-0.3-1.7l-13-10.3l1.4-1.8l11.6,9.3c0.7,0.5,1.6,0.4,2.1-0.2c0.4-0.6,0.3-1.4-0.2-1.8  l-12-9.6c-1.1-0.8-3.6,0.7-3.6,0.7l-7.4,4.8c-1.4,0.6-3.1-0.4-4.3-1.6c-0.1-0.1-0.2-0.2-0.3-0.4l-0.2-0.2c-1.1-1.9-1-4,0.4-4.9  l12.7-8.3l-1.3-1c-1.4-1.1-5.3,0.9-7.2,1.9l-0.6,0.3l-5-4.2l0.7-2.1l4.5,3.7c3.4-1.7,6.8-3,8.9-1.3l2.2,1.7c2.1-0.3,4.7,1.1,7.3,2.7  l8.3-5.4l1.2,1.9l-9.5,6.2l-0.6-0.4c-1.8-1.1-5.5-3.5-6.9-2.6l-13.5,8.8c-0.2,0.1-0.3,0.9,0.3,1.9c0.7,1,2,1.2,3,0.6l5.8-3.8  c0.8-0.6,2.1-1.1,2.1-1.1c1.6-0.6,3-0.6,4.1,0.2l7.9,6.3l3.3,2.6c0.1-0.4,0.1-0.9,0.2-1.3c0.1-0.4,0.1-0.8,0.2-1.2l0.1-0.5l9.8-6.3  l1.2,1.9L66.3,53z"/><path d="M41.8,64.7L39,66.5c-0.6,0.4-0.8,1.2-0.4,1.8c0.4,0.6,1.2,0.8,1.8,0.4l3.5-2.3l-1.9-1.5L41.8,64.7z"/><text x="0" y="115" fill="#000000" font-size="5px" font-weight="bold" font-family="'Helvetica Neue', Helvetica, Arial-Unicode, Arial, Sans-serif">Created by Aneeque Ahmed</text><text x="0" y="120" fill="#000000" font-size="5px" font-weight="bold" font-family="'Helvetica Neue', Helvetica, Arial-Unicode, Arial, Sans-serif">from the Noun Project</text></svg>
