<?xml version="1.0" encoding="utf-8"?>
<!-- Generator: Adobe Illustrator 21.0.0, SVG Export Plug-In . SVG Version: 6.00 Build 0)  -->
<svg version="1.1" id="Capa_1" xmlns="http://www.w3.org/2000/svg" xmlns:xlink="http://www.w3.org/1999/xlink" x="0px" y="0px"
	 viewBox="0 0 162 327" style="enable-background:new 0 0 162 327;" xml:space="preserve">
<path d="M76.5,148.5l-0.8,6c0,0.6,0.6,1.1,1.1,0.8l5.3-2.7l5.3,2.7c0.2,0.2,0.6,0,0.8,0c0.2-0.2,0.5-0.5,0.2-0.6l-1.1-5.7l4.2-4.2
	c0.2-0.2,0.2-0.5,0.2-0.8c0-0.2-0.2-0.5-0.6-0.5l-6-0.8l-2.6-5.3c0-0.2-0.2-0.2-0.2-0.2c-0.2,0-0.2-0.2-0.5-0.2
	c-0.2,0-0.6,0.2-0.6,0.5l-2.3,5.2l-6,0.8c-0.2,0-0.5,0.2-0.6,0.5c0,0.2,0,0.6,0.2,0.8L76.5,148.5z"/>
<path d="M128.5,96.9h-12.6c-0.8-12.9-9.2-22.1-22.1-25.5c6-3.6,9.8-9.8,9.8-17.3v-2.6c0-2.7-0.6-5.3-1.5-7.6c2.9-1.9,4.8-6,5-11.1
	c0-2.9-0.2-6.5-2.3-7.4c-1.1-0.5-2.1,0-2.7,0.8c-1.3,1.5-5.5,0.5-9.7-0.5c-4.8-1.1-10.3-2.3-15.3-1.3C65.6,27,63.8,36.2,64.3,40.5
	c0,0.2,0,0.2,0.2,0.2c-1.9,3.2-2.9,6.8-2.9,10.5v2.6c0,7.4,4,13.7,9.8,17.3c-13.1,3.7-21.5,12.9-22.1,25.8H36.7
	c-1.3,0-2.1,0.8-2.1,2.1v10.3c0,1.3,0.8,2.1,2.1,2.1h6.8v77.8c0,1.3,0.8,2.1,2.1,2.1h74.1c1.3,0,2.1-0.8,2.1-2.1v-77.8h6.9
	c1.3,0,2.1-0.8,2.1-2.1V99C130.6,97.7,129.8,96.9,128.5,96.9z M78,28.6c4.2-0.8,9,0.2,13.4,1.3c4.4,1.1,8.6,1.9,11.6,0.8
	c0.2,1.9,0,4.8-1.1,7.1c-0.5,1.1-1.1,1.9-1.6,2.6c-3.6-5.3-9.7-8.6-16.5-8.6h-2.6c-4.7,0-9,1.6-12.4,4.4
	C69.6,33.2,71.9,29.9,78,28.6z M81.4,69.9c-8.6,0-15.8-7.1-15.8-15.8v-2.6c0-8.6,7.1-15.8,15.8-15.8H84c8.6,0,15.8,7.1,15.8,15.8
	v2.6c0,8.6-7.1,15.8-15.8,15.8H81.4z M82.7,74.1c14,0,28.3,7.1,29.2,22.8H84.8v-5.5c1.1-0.6,1.9-1.9,1.9-3.4v-5.3c0-2.1-1.6-4-4-4
	s-4,1.6-4,4V88c0,1.5,0.8,2.6,1.9,3.4v5.5H53.4C54.4,81,68.6,74.1,82.7,74.1z M117.5,187.3H47.8v-75.7h69.9v75.7H117.5z
	 M126.4,107.2h-6.9H45.7h-6.9v-6.1h87.8v6.1H126.4z"/>
<g>
	<path d="M141.4,216.5H98.5c-0.5,0-0.8,0.3-0.8,0.8v28.4c0,0.5,0.3,0.8,0.8,0.8h4.8v7.3c0,0.3,0.2,0.6,0.5,0.8c0.2,0,0.2,0,0.3,0
		s0.3,0,0.5-0.2l9.8-7.9h26.8c0.5,0,0.8-0.3,0.8-0.8v-28.4C142.2,216.8,141.9,216.5,141.4,216.5z M140.6,244.9h-26.3
		c-0.2,0-0.3,0-0.5,0.2l-8.7,7.1v-6.5c0-0.5-0.3-0.8-0.8-0.8h-4.8v-26.8h41.3v26.8H140.6z"/>
	<path d="M103.5,279.5c6,0,11-4.8,11-11s-4.8-11-11-11c-6,0-11,4.8-11,11C92.5,274.6,97.5,279.5,103.5,279.5z M103.5,259.3
		c5.2,0,9.4,4.2,9.4,9.4s-4.2,9.4-9.4,9.4c-5.2,0-9.4-4.2-9.4-9.4C94.1,263.5,98.3,259.3,103.5,259.3z"/>
	<rect x="113.7" y="296.7" width="1.6" height="10.7"/>
	<rect x="91.7" y="296.7" width="1.6" height="10.7"/>
	<path d="M114.2,282.4c-6.9-1.6-14.2-1.6-21.3,0c-6.8,1.6-10.3,6.3-10,13.1l0.5,11.9h1.6l-0.5-11.9c-0.3-7.7,4.5-10.5,8.7-11.5
		c6.8-1.6,13.7-1.6,20.5,0c4.2,1,9,3.7,8.7,11.5l-0.5,11.9h1.6l0.6-11.9C124.5,288.7,120.9,284,114.2,282.4z"/>
	<path d="M48.9,254.4c0.2,0.2,0.3,0.2,0.5,0.2s0.2,0,0.3,0c0.3-0.2,0.5-0.5,0.5-0.8v-7.3h4.8c0.5,0,0.8-0.3,0.8-0.8v-28.4
		c0-0.5-0.3-0.8-0.8-0.8H12.3c-0.5,0-0.8,0.3-0.8,0.8v28.4c0,0.5,0.3,0.8,0.8,0.8h26.8L48.9,254.4z M13.1,218.1h41.3v26.8h-4.8
		c-0.5,0-0.8,0.3-0.8,0.8v6.5l-8.7-7.1c-0.2-0.2-0.3-0.2-0.5-0.2H13.1V218.1z"/>
	<path d="M39.2,268.7c0,6,4.8,11,11,11c6,0,11-4.8,11-11s-4.8-11-11-11C44.1,257.7,39.2,262.5,39.2,268.7z M59.4,268.7
		c0,5.2-4.2,9.4-9.4,9.4s-9.4-4.2-9.4-9.4s4.2-9.4,9.4-9.4C55.2,259.3,59.4,263.5,59.4,268.7z"/>
	<rect x="38.3" y="296.7" width="1.6" height="10.7"/>
	<rect x="60.2" y="296.7" width="1.6" height="10.7"/>
	<path d="M60.7,282.4c-6.9-1.6-14.2-1.6-21.3,0c-6.8,1.6-10.3,6.3-10,13.1l0.5,11.9h1.6L31,295.5c-0.3-7.7,4.5-10.5,8.7-11.5
		c6.8-1.6,13.7-1.6,20.5,0c4.2,1,9,3.7,8.7,11.5l-0.5,11.9h1.6l0.5-11.9C71,288.7,67.5,284,60.7,282.4z"/>
	<path d="M67.2,223.8l6.6,6.6c0.2,0.2,0.5,0.2,0.6,0l6.6-6.6l6.6,6.6c0.2,0.2,0.2,0.2,0.3,0.2c0.2,0,0.3,0,0.3-0.2l6.9-6.9l-0.6-0.6
		l-6.6,6.6l-6.6-6.6c-0.2-0.2-0.5-0.2-0.6,0l-6.6,6.6l-6.6-6.6c-0.2-0.2-0.5-0.2-0.6,0l-6.9,6.9l0.6,0.6L67.2,223.8z"/>
	<path d="M74.1,240.2l-6.6-6.6c-0.2-0.2-0.5-0.2-0.6,0l-6.9,6.9l0.6,0.6l6.6-6.6l6.6,6.6c0.2,0.2,0.2,0.2,0.3,0.2s0.3,0,0.3-0.2
		l6.9-6.9l-0.6-0.6L74.1,240.2z"/>
</g>
</svg>
