<svg xmlns="http://www.w3.org/2000/svg" viewBox="0 0 100 125"><path d="M38 61.7l-2.8 1.8c-.6.4-.7 1.1-.4 1.7.4.5 1.2.7 1.7.3l3.4-2.2-1.9-1.6zm-1.9-1.5l-2.3-1.8-.1.1c-.6.4-.8 1.2-.4 1.8.5.7 1.4.9 2.1.4l.7-.5z"/><path d="M88.4 24.2l-34.6-20c-2.2-1.3-5-1.3-7.2 0L12 24.2c-2.2 1.3-3.6 3.7-3.6 6.2v40c0 2.6 1.4 5 3.6 6.2l34.6 20c1.1.6 2.3 1 3.6 1s2.5-.3 3.6-1l34.6-20c2.2-1.3 3.6-3.7 3.6-6.2v-40c0-2.5-1.4-4.9-3.6-6.2zM66.3 53c0 .2-.1.4-.1.6-.1.9-.3 1.9-.5 2.9.6 1.2.5 2.7-.4 3.8-.4.5-1 .9-1.6 1.1.5 1.1.5 2.5-.3 3.5 0 0-.1 0-.1.1 0 0 0 .1-.1.1-.9.9-2.1 1.3-3.3 1.1-.1.6-.3 1.1-.7 1.6-1.2 1.5-3.5 1.8-5 .6l-2.5-2c-.1.4-.3.8-.6 1.2-1.2 1.5-3.5 1.8-5 .6l-.4-.3-1.4 1-2.7 1.8c-1.6 1.1-3.8.6-4.9-1-.3-.5-.5-1.1-.5-1.7-1.2 0-2.5-.5-3.2-1.5v-.1s0-.1-.1-.1c-.6-1.1-.6-2.5 0-3.5-.6-.3-1.1-.7-1.5-1.3-1-1.5-.6-3.6.8-4.7-1.3-2-1.5-4.9-1.6-7v-.6l-5.1-4 1.1-2 6.2 4.8v.5c0 .3.1.8.1 1.2.1 2.1.3 5.3 1.8 6.5l8.8 7 4.1 3.2c.6.5 1.4.4 1.9-.2.4-.6.3-1.4-.2-1.8L44 60.2l1.4-1.8 5.2 4.1 5.1 4.1c.6.5 1.4.4 1.8-.2.4-.6.3-1.4-.2-1.8l-11.5-9.1 1.4-1.8 11.5 9.1.3.3.8.6c.5.4 1.3.4 1.8-.1.4-.5.3-1.3-.3-1.7l-13-10.3 1.4-1.8 11.6 9.3c.7.5 1.6.4 2.1-.2.4-.6.3-1.4-.2-1.8l-12-9.6c-1.1-.8-3.6.7-3.6.7L40.2 53c-1.4.6-3.1-.4-4.3-1.6-.1-.1-.2-.2-.3-.4l-.2-.2c-1.1-1.9-1-4 .4-4.9l12.7-8.3-1.3-1c-1.4-1.1-5.3.9-7.2 1.9l-.6.3-5-4.2.7-2.1 4.5 3.7c3.4-1.7 6.8-3 8.9-1.3l2.2 1.7c2.1-.3 4.7 1.1 7.3 2.7l8.3-5.4 1.2 1.9L58 42l-.6-.4c-1.8-1.1-5.5-3.5-6.9-2.6L37 47.8c-.2.1-.3.9.3 1.9.7 1 2 1.2 3 .6l5.8-3.8c.8-.6 2.1-1.1 2.1-1.1 1.6-.6 3-.6 4.1.2l7.9 6.3 3.3 2.6c.1-.4.1-.9.2-1.3s.1-.8.2-1.2l.1-.5 9.8-6.3 1.2 1.9-8.7 5.9z"/><path d="M41.8 64.7L39 66.5c-.6.4-.8 1.2-.4 1.8.4.6 1.2.8 1.8.4l3.5-2.3-1.9-1.5-.2-.2z"/><text y="115" font-size="5" font-weight="bold" font-family="'Helvetica Neue', Helvetica, Arial-Unicode, Arial, Sans-serif">Created by Aneeque Ahmed</text><text y="120" font-size="5" font-weight="bold" font-family="'Helvetica Neue', Helvetica, Arial-Unicode, Arial, Sans-serif">from the Noun Project</text></svg>