<svg xmlns:xlink="http://www.w3.org/1999/xlink" xmlns="http://www.w3.org/2000/svg" viewBox="" width="100%" height="100%" aria-labelledby="title desc">
    <defs>
        <pattern id="vote" width="40" height="40" patternUnits="userSpaceOnUse">
            <path fill="#4208d9" fill-opacity=".3" stroke-opacity=".3" d="M18.8,17.1c0-0.1,0.1-0.1,0.1-0.1h0.2v-0.2c0-0.1,0.1-0.1,0.1-0.1c0.1,0,0.1,0.1,0.1,0.1V17h0.2c0.1,0,0.1,0.1,0.1,0.1v0.1
                h-0.1h-0.2v0.2v0.1h-0.1c-0.1,0-0.1-0.1-0.1-0.1v-0.2H19C18.9,17.2,18.8,17.1,18.8,17.1z"/>
            <path fill="#4208d9" fill-opacity=".3" stroke-opacity=".3" d="M26.6,19.9l-3.8-3.8c-0.1-0.1-0.1-0.1-0.2,0l-1.3,1.3l-2-2c-0.1-0.1-0.1-0.1-0.2,0l-3.3,3.3c-0.1,0.1-0.1,0.1,0,0.2l2,2
                l-1.3,1.3c-0.1,0.1-0.1,0.1,0,0.2l3.8,3.7c0.1,0.1,0.1,0.1,0.2,0l6.2-6.2C26.6,20,26.6,19.9,26.6,19.9z M20.3,26l-2.9-2.9l6-6
                l2.9,2.9L20.3,26z M21.1,17.6L18,20.8l-1.9-1.9l3.1-3.1C19.3,15.8,21.1,17.6,21.1,17.6z M22.7,16.4l0.5,0.5l-6,6l-0.5-0.5
                L22.7,16.4z"/>
            <path fill="#4208d9" fill-opacity=".3" stroke-opacity=".3" d="M18.7,17.7l-1.5,1.5c-0.1,0.1-0.1,0.1-0.2,0c0,0,0-0.1,0-0.2l1.5-1.5c0.1-0.1,0.1-0.1,0.2,0C18.7,17.6,18.7,17.7,18.7,17.7
                z"/>
            <path fill="#4208d9" fill-opacity=".3" stroke-opacity=".3" d="M19.5,17.8c0-0.1,0.1-0.1,0.1-0.1h0.2v-0.2c0-0.1,0.1-0.1,0.1-0.1l0.1,0.1v0.2h0.2c0.1,0,0.1,0.1,0.1,0.1v0.1h-0.1H20v0.2
                v0.1c-0.1,0-0.1,0.1-0.2,0.1s-0.1-0.1-0.1-0.1V18h-0.2C19.6,17.9,19.5,17.8,19.5,17.8z"/>
            <path fill="#4208d9" fill-opacity=".3" stroke-opacity=".3" d="M17.8,19.7l1.5-1.5c0.1-0.1,0.1-0.1,0.2,0s0.1,0.1,0,0.2L18,19.9c-0.1,0.1-0.1,0.1-0.2,0C17.7,19.8,17.7,19.8,17.8,19.7z"
                />
            <path fill="#4208d9" fill-opacity=".3" stroke-opacity=".3" d="M31.4,30.1C31.4,30,31.5,30,31.4,30.1l0.3-0.1v-0.2c0-0.1,0.1-0.1,0.1-0.1c0.1,0,0.1,0.1,0.1,0.1V30h0.2
                c0.1,0,0.1,0.1,0.1,0.1v0.1h-0.1h-0.2v0.2v0.1h-0.1c-0.1,0-0.1-0.1-0.1-0.1v-0.2L31.4,30.1C31.4,30.3,31.4,30.2,31.4,30.1z"/>
            <path fill="#4208d9" fill-opacity=".3" stroke-opacity=".3" d="M39.2,33l-3.8-3.8c-0.1-0.1-0.1-0.1-0.2,0l-1.3,1.3l-2-2c-0.1-0.1-0.1-0.1-0.2,0l-3.3,3.3c-0.1,0.1-0.1,0.1,0,0.2l2,2
                l-1.3,1.3c-0.1,0.1-0.1,0.1,0,0.2l3.8,3.7c0.1,0.1,0.1,0.1,0.2,0l6.2-6.2C39.2,33.1,39.2,33,39.2,33z M32.9,39L30,36.1l6-6l2.9,2.9
                L32.9,39z M33.7,30.7l-3.1,3.2L28.7,32l3.1-3.1C31.8,28.8,33.7,30.7,33.7,30.7z M35.3,29.5l0.5,0.5l-6,6l-0.5-0.5L35.3,29.5z"/>
            <path fill="#4208d9" fill-opacity=".3" stroke-opacity=".3" d="M31.3,30.8l-1.5,1.5c-0.1,0.1-0.1,0.1-0.2,0s-0.1-0.1,0-0.2l1.5-1.5c0.1-0.1,0.1-0.1,0.2,0C31.3,30.7,31.3,30.8,31.3,30.8z
                "/>
            <path fill="#4208d9" fill-opacity=".3" stroke-opacity=".3" d="M32.1,30.8C32.1,30.7,32.2,30.7,32.1,30.8l0.3-0.1v-0.2c0-0.1,0.1-0.1,0.1-0.1l0.1,0.1v0.2h0.2c0.1,0,0.1,0.1,0.1,0.1v0.1
                h-0.1h-0.1v0.2v0.1c-0.1,0-0.1,0.1-0.2,0.1c-0.1,0-0.1-0.1-0.1-0.1V31h-0.2C32.1,30.9,32.1,30.9,32.1,30.8z"/>
            <path fill="#4208d9" fill-opacity=".3" stroke-opacity=".3" d="M30.3,32.8l1.5-1.5c0.1-0.1,0.1-0.1,0.2,0s0.1,0.1,0,0.2L30.5,33c-0.1,0.1-0.1,0.1-0.2,0C30.3,32.9,30.3,32.8,30.3,32.8z"
                />
            <path fill="#4208d9" fill-opacity=".3" stroke-opacity=".3" d="M3.6,2.3C3.6,2.2,3.7,2.2,3.6,2.3l0.3-0.1V2C3.9,1.9,4,1.9,4,1.9C4.1,1.9,4.1,2,4.1,2v0.2h0.2c0.1,0,0.1,0.1,0.1,0.1v0.1
                H4.3H4.1v0.2v0.1H4c-0.1,0-0.1-0.1-0.1-0.1V2.4L3.6,2.3C3.6,2.5,3.6,2.4,3.6,2.3z"/>
            <path fill="#4208d9" fill-opacity=".3" stroke-opacity=".3" d="M11.4,5.2L7.6,1.4c-0.1-0.1-0.1-0.1-0.2,0L6.1,2.7l-2-2C4,0.6,4,0.6,3.9,0.7L0.6,4c-0.1,0.1-0.1,0.1,0,0.2l2,2L1.3,7.5
                c-0.1,0.1-0.1,0.1,0,0.2l3.8,3.7c0.1,0.1,0.1,0.1,0.2,0l6.2-6.2C11.4,5.3,11.4,5.2,11.4,5.2z M5.1,11.2L2.2,8.3l6-6l2.9,2.9
                L5.1,11.2z M5.9,2.9L2.8,6.1L0.9,4.2L4,1.1C4,1,5.9,2.9,5.9,2.9z M7.5,1.7L8,2.2l-6,6L1.5,7.7L7.5,1.7z"/>
            <path fill="#4208d9" fill-opacity=".3" stroke-opacity=".3" d="M3.5,3L2,4.5c-0.1,0.1-0.1,0.1-0.2,0s-0.1-0.1,0-0.2l1.5-1.5c0.1-0.1,0.1-0.1,0.2,0C3.5,2.9,3.5,3,3.5,3z"/>
            <path fill="#4208d9" fill-opacity=".3" stroke-opacity=".3" d="M4.3,3C4.3,2.9,4.4,2.9,4.3,3l0.3-0.1V2.7c0-0.1,0.1-0.1,0.1-0.1l0.1,0.1v0.2H5C5.1,2.9,5.1,3,5.1,3v0.1H5H4.9v0.2v0.1
                c-0.1,0-0.1,0.1-0.2,0.1c-0.1,0-0.1-0.1-0.1-0.1V3.2H4.4C4.3,3.1,4.3,3.1,4.3,3z"/>
            <path fill="#4208d9" fill-opacity=".3" stroke-opacity=".3" d="M2.5,5L4,3.5c0.1-0.1,0.1-0.1,0.2,0s0.1,0.1,0,0.2L2.7,5.2c-0.1,0.1-0.1,0.1-0.2,0C2.5,5.1,2.5,5,2.5,5z"/>
        </pattern>
    </defs>

    <rect x="0" y="0" width="100%" height="100%" fill="url(#vote)" />
</svg>
