<svg xmlns:xlink="http://www.w3.org/1999/xlink" xmlns="http://www.w3.org/2000/svg" viewBox="" width="100%" height="100%" aria-labelledby="title desc">
    <defs>
        <pattern id="vote" width="125" height="151" patternUnits="userSpaceOnUse">
            <path fill="#4208d9" fill-opacity=".2" stroke-opacity=".2" d="M79.4,105.2c0-0.3,0.2-0.5,0.5-0.5h0.7V104c0-0.3,0.2-0.5,0.5-0.5s0.5,0.2,0.5,0.5v0.7h0.7c0.3,0,0.5,0.2,0.5,0.5
                c0,0.1-0.1,0.2-0.1,0.3s-0.2,0.1-0.3,0.1h-0.7v0.7c0,0.1-0.1,0.2-0.1,0.3c-0.1,0.1-0.2,0.1-0.3,0.1c-0.3,0-0.5-0.2-0.5-0.5v-0.7
                h-0.7C79.6,105.6,79.4,105.4,79.4,105.2z"/>
            <path fill="#4208d9" fill-opacity=".2" stroke-opacity=".2" d="M107.4,115.4l-13.6-13.6c-0.2-0.2-0.5-0.2-0.7,0l-4.8,4.8l-7.1-7.1c-0.2-0.2-0.5-0.2-0.7,0l-12,12c-0.2,0.2-0.2,0.5,0,0.7
                l7.1,7.1l-4.8,4.8c-0.2,0.2-0.2,0.5,0,0.7l13.6,13.6c0.2,0.2,0.5,0.2,0.7,0l22.3-22.3C107.6,115.9,107.6,115.6,107.4,115.4z
                 M84.9,137.3l-10.5-10.5L96,105.2l10.5,10.5L84.9,137.3z M87.7,107.3l-11.3,11.3l-6.7-6.7L81,100.5C81,100.5,87.7,107.3,87.7,107.3z
                 M93.5,102.8l1.8,1.8l-21.6,21.6l-1.8-1.8L93.5,102.8z"/>
            <path fill="#4208d9" fill-opacity=".2" stroke-opacity=".2" d="M79,107.6l-5.3,5.3c-0.2,0.2-0.5,0.2-0.7,0c-0.2-0.2-0.2-0.5,0-0.7l5.3-5.3c0.2-0.2,0.5-0.2,0.7,0
                C79.1,107.2,79.1,107.5,79,107.6z"/>
            <path fill="#4208d9" fill-opacity=".2" stroke-opacity=".2" d="M81.9,107.7c0-0.3,0.2-0.5,0.5-0.5H83v-0.7c0-0.3,0.2-0.5,0.5-0.5c0.3,0,0.5,0.2,0.5,0.5v0.7h0.7c0.3,0,0.5,0.2,0.5,0.5
                c0,0.1-0.1,0.2-0.1,0.3c-0.1,0.1-0.2,0.1-0.3,0.1H84v0.7c0,0.1-0.1,0.2-0.1,0.3s-0.2,0.1-0.3,0.1c-0.3,0-0.5-0.2-0.5-0.5v-0.7h-0.7
                C82.1,108.1,81.9,107.9,81.9,107.7z"/>
            <path fill="#4208d9" fill-opacity=".2" stroke-opacity=".2" d="M75.5,114.7l5.3-5.3c0.2-0.2,0.5-0.2,0.7,0c0.2,0.2,0.2,0.5,0,0.7l-5.3,5.3c-0.2,0.2-0.5,0.2-0.7,0
                C75.4,115.2,75.4,114.9,75.5,114.7z"/>
            <path fill="#4208d9" fill-opacity=".2" stroke-opacity=".2" d="M28.7,76.8c0-0.3,0.2-0.5,0.5-0.5h0.7v-0.7c0-0.3,0.2-0.5,0.5-0.5c0.3,0,0.5,0.2,0.5,0.5v0.7h0.7c0.3,0,0.5,0.2,0.5,0.5
                c0,0.1-0.1,0.2-0.1,0.3c-0.1,0.1-0.2,0.1-0.3,0.1h-0.7V78c0,0.1-0.1,0.2-0.1,0.3c-0.1,0.1-0.2,0.1-0.3,0.1c-0.3,0-0.5-0.2-0.5-0.5
                v-0.7h-0.7C28.9,77.2,28.7,77,28.7,76.8z"/>
            <path fill="#4208d9" fill-opacity=".2" stroke-opacity=".2" d="M56.8,87L43.2,73.4c-0.2-0.2-0.5-0.2-0.7,0l-4.8,4.8l-7.1-7.1c-0.2-0.2-0.5-0.2-0.7,0l-12,12c-0.2,0.2-0.2,0.5,0,0.7
                l7.1,7.1l-4.8,4.8c-0.2,0.2-0.2,0.5,0,0.7l13.6,13.6c0.2,0.2,0.5,0.2,0.7,0l22.3-22.3C57,87.5,57,87.2,56.8,87z M34.2,108.9
                L23.7,98.4l21.6-21.6l10.5,10.5L34.2,108.9z M37.1,78.8L25.8,90.2L19,83.4l11.3-11.3C30.4,72.1,37.1,78.8,37.1,78.8z M42.9,74.4
                l1.8,1.8L23.1,97.8L21.3,96L42.9,74.4z"/>
            <path fill="#4208d9" fill-opacity=".2" stroke-opacity=".2" d="M28.3,79.2l-5.3,5.3c-0.2,0.2-0.5,0.2-0.7,0c-0.2-0.2-0.2-0.5,0-0.7l5.3-5.3c0.2-0.2,0.5-0.2,0.7,0
                C28.5,78.8,28.5,79,28.3,79.2z"/>
            <path fill="#4208d9" fill-opacity=".2" stroke-opacity=".2" d="M31.2,79.3c0-0.3,0.2-0.5,0.5-0.5h0.7v-0.7c0-0.3,0.2-0.5,0.5-0.5c0.3,0,0.5,0.2,0.5,0.5v0.7H34c0.3,0,0.5,0.2,0.5,0.5
                c0,0.1-0.1,0.2-0.1,0.3c-0.1,0.1-0.2,0.1-0.3,0.1h-0.7v0.7c0,0.1-0.1,0.2-0.1,0.3s-0.2,0.1-0.3,0.1c-0.3,0-0.5-0.2-0.5-0.5v-0.7
                h-0.7C31.4,79.7,31.2,79.5,31.2,79.3z"/>
            <path fill="#4208d9" fill-opacity=".2" stroke-opacity=".2" d="M24.9,86.3l5.3-5.3c0.2-0.2,0.5-0.2,0.7,0s0.2,0.5,0,0.7L25.6,87c-0.2,0.2-0.5,0.2-0.7,0C24.7,86.8,24.7,86.5,24.9,86.3z"/>
            <path fill="#4208d9" fill-opacity=".2" stroke-opacity=".2" d="M61.8,27.9c0-0.3,0.2-0.5,0.5-0.5h0.7v-0.7c0-0.3,0.2-0.5,0.5-0.5c0.3,0,0.5,0.2,0.5,0.5v0.7h0.7c0.3,0,0.5,0.2,0.5,0.5
                c0,0.1-0.1,0.2-0.1,0.3c-0.1,0.1-0.2,0.1-0.3,0.1h-0.7V29c0,0.1-0.1,0.2-0.1,0.3c-0.1,0.1-0.2,0.1-0.3,0.1c-0.3,0-0.5-0.2-0.5-0.5
                v-0.7h-0.7C62,28.3,61.8,28.1,61.8,27.9z"/>
            <path fill="#4208d9" fill-opacity=".2" stroke-opacity=".2" d="M89.8,38.1L76.2,24.5c-0.2-0.2-0.5-0.2-0.7,0l-4.8,4.8l-7.1-7.1c-0.2-0.2-0.5-0.2-0.7,0l-12,12c-0.2,0.2-0.2,0.5,0,0.7
                l7.1,7.1l-4.8,4.8c-0.2,0.2-0.2,0.5,0,0.7L66.9,61c0.2,0.2,0.5,0.2,0.7,0l22.3-22.3C90,38.5,90,38.2,89.8,38.1z M67.3,60L56.8,49.5
                l21.6-21.6l10.5,10.5L67.3,60z M70.1,29.9L58.8,41.3l-6.7-6.7l11.3-11.3C63.4,23.2,70.1,29.9,70.1,29.9z M75.9,25.4l1.8,1.8
                L56.1,48.9l-1.8-1.8L75.9,25.4z"/>
            <path fill="#4208d9" fill-opacity=".2" stroke-opacity=".2" d="M61.4,30.3l-5.3,5.3c-0.2,0.2-0.5,0.2-0.7,0s-0.2-0.5,0-0.7l5.3-5.3c0.2-0.2,0.5-0.2,0.7,0C61.5,29.8,61.5,30.1,61.4,30.3z"
                />
            <path fill="#4208d9" fill-opacity=".2" stroke-opacity=".2" d="M64.3,30.4c0-0.3,0.2-0.5,0.5-0.5h0.7v-0.7c0-0.3,0.2-0.5,0.5-0.5c0.3,0,0.5,0.2,0.5,0.5v0.7h0.7c0.3,0,0.5,0.2,0.5,0.5
                c0,0.1-0.1,0.2-0.1,0.3c-0.1,0.1-0.2,0.1-0.3,0.1h-0.7v0.7c0,0.1-0.1,0.2-0.1,0.3C66.1,31.9,66,32,65.9,32c-0.3,0-0.5-0.2-0.5-0.5
                v-0.7h-0.7C64.5,30.8,64.3,30.6,64.3,30.4z"/>
            <path fill="#4208d9" fill-opacity=".2" stroke-opacity=".2" d="M58,37.4l5.3-5.3c0.2-0.2,0.5-0.2,0.7,0c0.2,0.2,0.2,0.5,0,0.7l-5.3,5.3c-0.2,0.2-0.5,0.2-0.7,0
                C57.8,37.9,57.8,37.6,58,37.4z"/>
        </pattern>
    </defs>

    <rect x="0" y="0" width="100%" height="100%" fill="url(#vote)" />
</svg>
